<?xml version="1.0" encoding="utf-8"?>
<!-- Generator: Adobe Illustrator 25.2.0, SVG Export Plug-In . SVG Version: 6.00 Build 0)  -->
<svg version="1.1" id="Capa_1" xmlns="http://www.w3.org/2000/svg" xmlns:xlink="http://www.w3.org/1999/xlink" x="0px" y="0px"
	 viewBox="0 0 512 512" style="enable-background:new 0 0 512 512;" xml:space="preserve">
<style type="text/css">
	.st0{fill:#FFDA2D;}
	.st1{fill:#FDBF00;}
	.st2{fill:#FF9100;}
</style>
<g>
	<path class="st0" d="M256,0C115.3,0,0,115.3,0,256s115.3,256,256,256s256-115.3,256-256S396.7,0,256,0z"/>
	<path class="st1" d="M512,256c0,140.7-115.3,256-256,256V0C396.7,0,512,115.3,512,256z"/>
	<g>
		<path class="st1" d="M256,60C148.6,60,60,148.6,60,256c0,107.4,88.6,196,196,196s196-88.6,196-196C452,148.6,363.4,60,256,60z"/>
	</g>
	<path class="st2" d="M452,256c0,107.4-88.6,196-196,196V60C363.4,60,452,148.6,452,256z"/>
</g>
</svg>
